- 
http://www.Speed.Cd
 
http://www.Speed.Cd       the fast  and The Hottest Private Tracker on the net

(((--Registration is Open!!--)))

Please Seed back to make the speed Faster!!!

and don't forget to visit .......http://www.Speed.Cd  ......


 ............ NFO .............
-General
Unique ID : 235711527999722249426262009781639409410 (0xB1546395950C6266C2C3EA795A536F02)
Complete name : data/White.Collar.S04E02.Most.Wanted.720p.WEB-DL.DD5.1.h.264-NTb.mkv
Format : Matroska
Format version : Version 2
File size : 1.28 GiB
Duration : 42mn 23s
Overall bit rate : 4 322 Kbps
Movie name : White Collar S04E02 Most Wanted
Encoded date : UTC 2012-07-18 08:02:42
Writing application : mkvmerge v5.5.0 ('Healer') built on Apr 25 2012 20:53:43
Writing library : libebml v1.2.2 + libmatroska v1.3.0

Video
ID : 1
Format : AVC
Format/Info : Advanced Video Codec
Format profile : High@L3.1
Format settings, CABAC : No
Format settings, ReFrames : 2 frames
Codec ID : V_MPEG4/ISO/AVC
Duration : 42mn 23s
Bit rate : 3 852 Kbps
Width : 1 280 pixels
Height : 720 pixels
Display aspect ratio : 16:9
Frame rate : 23.976 fps
Color space : YUV
Chroma subsampling : 4:2:0
Bit depth : 8 bits
Scan type : Progressive
Bits/(Pixel*Frame) : 0.174
Stream size : 1.14 GiB (89%)
Title : h.264
Language : English
Default : Yes
Forced : No
Color primaries : BT.709-5, BT.1361, IEC 61966-2-4, SMPTE RP177
Transfer characteristics : BT.709-5, BT.1361
Matrix coefficients : BT.709-5, BT.1361, IEC 61966-2-4 709, SMPTE RP177

Audio
ID : 2
Format : AC-3
Format/Info : Audio Coding 3
Mode extension : CM (complete main)
Codec ID : A_AC3
Duration : 42mn 23s
Bit rate mode : Constant
Bit rate : 384 Kbps
Channel(s) : 6 channels
Channel positions : Front: L C R, Side: L R, LFE
Sampling rate : 48.0 KHz
Bit depth : 16 bits
Compression mode : Lossy
Stream size : 116 MiB (9%)
Title : DD 5.1
Language : English
Default : Yes
Forced : No